<mxfile host="app.diagrams.net" agent="Mozilla/5.0 (Windows NT 10.0; Win64; x64) AppleWebKit/537.36 (KHTML, like Gecko) Chrome/132.0.0.0 Safari/537.36" version="26.0.4">
  <diagram name="Page-1" id="cTdNTrZdiVtizNcZopHO">
    <mxGraphModel dx="1434" dy="746" grid="1" gridSize="10" guides="1" tooltips="1" connect="1" arrows="1" fold="1" page="1" pageScale="1" pageWidth="827" pageHeight="1169" math="0" shadow="0">
      <root>
        <mxCell id="0" />
        <mxCell id="1" parent="0" />
        <mxCell id="jPDuKESHbQuXLP3hNdnU-1" value="EEV Matter" style="ellipse;whiteSpace=wrap;html=1;" vertex="1" parent="1">
          <mxGeometry x="360" y="320" width="120" height="80" as="geometry" />
        </mxCell>
        <mxCell id="jPDuKESHbQuXLP3hNdnU-2" value="Case" style="ellipse;whiteSpace=wrap;html=1;" vertex="1" parent="1">
          <mxGeometry x="680" y="320" width="120" height="80" as="geometry" />
        </mxCell>
        <mxCell id="jPDuKESHbQuXLP3hNdnU-3" value="" style="endArrow=ERone;html=1;rounded=0;startArrow=ERmany;startFill=0;endFill=0;" edge="1" parent="1" source="jPDuKESHbQuXLP3hNdnU-1" target="jPDuKESHbQuXLP3hNdnU-2">
          <mxGeometry width="50" height="50" relative="1" as="geometry">
            <mxPoint x="190" y="410" as="sourcePoint" />
            <mxPoint x="240" y="360" as="targetPoint" />
          </mxGeometry>
        </mxCell>
        <mxCell id="jPDuKESHbQuXLP3hNdnU-4" value="Project" style="ellipse;whiteSpace=wrap;html=1;" vertex="1" parent="1">
          <mxGeometry x="680" y="200" width="120" height="80" as="geometry" />
        </mxCell>
        <mxCell id="jPDuKESHbQuXLP3hNdnU-5" value="" style="endArrow=ERone;html=1;rounded=0;startArrow=ERmany;startFill=0;endFill=0;" edge="1" parent="1" source="jPDuKESHbQuXLP3hNdnU-1" target="jPDuKESHbQuXLP3hNdnU-4">
          <mxGeometry width="50" height="50" relative="1" as="geometry">
            <mxPoint x="240" y="300" as="sourcePoint" />
            <mxPoint x="420" y="240" as="targetPoint" />
          </mxGeometry>
        </mxCell>
        <mxCell id="jPDuKESHbQuXLP3hNdnU-6" value="Division" style="ellipse;whiteSpace=wrap;html=1;" vertex="1" parent="1">
          <mxGeometry x="360" y="200" width="120" height="80" as="geometry" />
        </mxCell>
        <mxCell id="jPDuKESHbQuXLP3hNdnU-7" value="" style="endArrow=ERone;html=1;rounded=0;startArrow=ERmany;startFill=0;endFill=0;" edge="1" parent="1" source="jPDuKESHbQuXLP3hNdnU-1" target="jPDuKESHbQuXLP3hNdnU-6">
          <mxGeometry width="50" height="50" relative="1" as="geometry">
            <mxPoint x="250" y="390" as="sourcePoint" />
            <mxPoint x="285" y="233" as="targetPoint" />
          </mxGeometry>
        </mxCell>
        <mxCell id="jPDuKESHbQuXLP3hNdnU-8" value="EEV Matter config" style="ellipse;whiteSpace=wrap;html=1;" vertex="1" parent="1">
          <mxGeometry x="200" y="200" width="120" height="80" as="geometry" />
        </mxCell>
        <mxCell id="jPDuKESHbQuXLP3hNdnU-9" value="" style="endArrow=ERone;html=1;rounded=0;startArrow=ERmany;startFill=0;endFill=0;" edge="1" parent="1" source="jPDuKESHbQuXLP3hNdnU-1" target="jPDuKESHbQuXLP3hNdnU-8">
          <mxGeometry width="50" height="50" relative="1" as="geometry">
            <mxPoint x="270" y="400" as="sourcePoint" />
            <mxPoint x="67" y="283" as="targetPoint" />
          </mxGeometry>
        </mxCell>
        <mxCell id="jPDuKESHbQuXLP3hNdnU-10" value="Data set" style="ellipse;whiteSpace=wrap;html=1;" vertex="1" parent="1">
          <mxGeometry x="200" y="80" width="120" height="80" as="geometry" />
        </mxCell>
        <mxCell id="jPDuKESHbQuXLP3hNdnU-11" value="" style="endArrow=ERone;html=1;rounded=0;startArrow=ERmany;startFill=0;endFill=0;" edge="1" parent="1" source="jPDuKESHbQuXLP3hNdnU-8" target="jPDuKESHbQuXLP3hNdnU-10">
          <mxGeometry width="50" height="50" relative="1" as="geometry">
            <mxPoint x="361" y="368" as="sourcePoint" />
            <mxPoint x="109" y="402" as="targetPoint" />
          </mxGeometry>
        </mxCell>
        <mxCell id="jPDuKESHbQuXLP3hNdnU-12" value="EEV Matter Recipient" style="ellipse;whiteSpace=wrap;html=1;" vertex="1" parent="1">
          <mxGeometry x="200" y="440" width="120" height="80" as="geometry" />
        </mxCell>
        <mxCell id="jPDuKESHbQuXLP3hNdnU-13" value="" style="endArrow=ERone;html=1;rounded=0;startArrow=ERmany;startFill=0;endFill=0;" edge="1" parent="1" source="jPDuKESHbQuXLP3hNdnU-12" target="jPDuKESHbQuXLP3hNdnU-1">
          <mxGeometry width="50" height="50" relative="1" as="geometry">
            <mxPoint x="390" y="340" as="sourcePoint" />
            <mxPoint x="310" y="280" as="targetPoint" />
          </mxGeometry>
        </mxCell>
        <mxCell id="jPDuKESHbQuXLP3hNdnU-14" value="Contact" style="ellipse;whiteSpace=wrap;html=1;" vertex="1" parent="1">
          <mxGeometry x="40" y="320" width="120" height="80" as="geometry" />
        </mxCell>
        <mxCell id="jPDuKESHbQuXLP3hNdnU-15" value="" style="endArrow=ERone;html=1;rounded=0;startArrow=ERmany;startFill=0;endFill=0;" edge="1" parent="1" source="jPDuKESHbQuXLP3hNdnU-12" target="jPDuKESHbQuXLP3hNdnU-14">
          <mxGeometry width="50" height="50" relative="1" as="geometry">
            <mxPoint x="-10" y="480" as="sourcePoint" />
            <mxPoint x="390" y="400" as="targetPoint" />
          </mxGeometry>
        </mxCell>
        <mxCell id="jPDuKESHbQuXLP3hNdnU-16" value="EEV Matter Responding Party" style="ellipse;whiteSpace=wrap;html=1;" vertex="1" parent="1">
          <mxGeometry x="360" y="440" width="120" height="80" as="geometry" />
        </mxCell>
        <mxCell id="jPDuKESHbQuXLP3hNdnU-17" value="" style="endArrow=ERone;html=1;rounded=0;startArrow=ERmany;startFill=0;endFill=0;" edge="1" parent="1" source="jPDuKESHbQuXLP3hNdnU-16" target="jPDuKESHbQuXLP3hNdnU-1">
          <mxGeometry width="50" height="50" relative="1" as="geometry">
            <mxPoint x="310" y="460" as="sourcePoint" />
            <mxPoint x="390" y="400" as="targetPoint" />
          </mxGeometry>
        </mxCell>
        <mxCell id="jPDuKESHbQuXLP3hNdnU-18" value="EEV Working copy" style="ellipse;whiteSpace=wrap;html=1;" vertex="1" parent="1">
          <mxGeometry x="1160" y="800" width="120" height="80" as="geometry" />
        </mxCell>
        <mxCell id="jPDuKESHbQuXLP3hNdnU-19" value="Evidence" style="ellipse;whiteSpace=wrap;html=1;" vertex="1" parent="1">
          <mxGeometry x="1000" y="560" width="120" height="80" as="geometry" />
        </mxCell>
        <mxCell id="jPDuKESHbQuXLP3hNdnU-20" value="" style="endArrow=ERone;html=1;rounded=0;startArrow=ERmany;startFill=0;endFill=0;" edge="1" parent="1" source="jPDuKESHbQuXLP3hNdnU-18" target="jPDuKESHbQuXLP3hNdnU-19">
          <mxGeometry width="50" height="50" relative="1" as="geometry">
            <mxPoint x="1270" y="420" as="sourcePoint" />
            <mxPoint x="1350" y="360" as="targetPoint" />
          </mxGeometry>
        </mxCell>
        <mxCell id="jPDuKESHbQuXLP3hNdnU-21" value="EEV Working copy request" style="ellipse;whiteSpace=wrap;html=1;" vertex="1" parent="1">
          <mxGeometry x="1160" y="680" width="120" height="80" as="geometry" />
        </mxCell>
        <mxCell id="jPDuKESHbQuXLP3hNdnU-22" value="" style="endArrow=ERone;html=1;rounded=0;startArrow=ERmany;startFill=0;endFill=0;" edge="1" parent="1" source="jPDuKESHbQuXLP3hNdnU-18" target="jPDuKESHbQuXLP3hNdnU-21">
          <mxGeometry width="50" height="50" relative="1" as="geometry">
            <mxPoint x="1460" y="690" as="sourcePoint" />
            <mxPoint x="1164" y="625" as="targetPoint" />
          </mxGeometry>
        </mxCell>
        <mxCell id="jPDuKESHbQuXLP3hNdnU-24" value="EEV Working copy location" style="ellipse;whiteSpace=wrap;html=1;" vertex="1" parent="1">
          <mxGeometry x="1320" y="560" width="120" height="80" as="geometry" />
        </mxCell>
        <mxCell id="jPDuKESHbQuXLP3hNdnU-25" value="" style="endArrow=ERone;html=1;rounded=0;startArrow=ERmany;startFill=0;endFill=0;" edge="1" parent="1" source="jPDuKESHbQuXLP3hNdnU-21" target="jPDuKESHbQuXLP3hNdnU-19">
          <mxGeometry width="50" height="50" relative="1" as="geometry">
            <mxPoint x="1248" y="676" as="sourcePoint" />
            <mxPoint x="1202" y="629" as="targetPoint" />
          </mxGeometry>
        </mxCell>
        <mxCell id="jPDuKESHbQuXLP3hNdnU-26" value="" style="endArrow=ERone;html=1;rounded=0;startArrow=ERmany;startFill=0;endFill=0;" edge="1" parent="1" source="jPDuKESHbQuXLP3hNdnU-21" target="jPDuKESHbQuXLP3hNdnU-24">
          <mxGeometry width="50" height="50" relative="1" as="geometry">
            <mxPoint x="1480" y="720" as="sourcePoint" />
            <mxPoint x="1270" y="640" as="targetPoint" />
          </mxGeometry>
        </mxCell>
        <mxCell id="jPDuKESHbQuXLP3hNdnU-27" value="" style="endArrow=ERone;html=1;rounded=0;startArrow=ERmany;startFill=0;endFill=0;" edge="1" parent="1" source="jPDuKESHbQuXLP3hNdnU-18" target="jPDuKESHbQuXLP3hNdnU-24">
          <mxGeometry width="50" height="50" relative="1" as="geometry">
            <mxPoint x="1370" y="860" as="sourcePoint" />
            <mxPoint x="1480" y="820" as="targetPoint" />
          </mxGeometry>
        </mxCell>
        <mxCell id="jPDuKESHbQuXLP3hNdnU-28" value="" style="endArrow=ERone;html=1;rounded=0;startArrow=ERmany;startFill=0;endFill=0;" edge="1" parent="1" source="jPDuKESHbQuXLP3hNdnU-19" target="jPDuKESHbQuXLP3hNdnU-2">
          <mxGeometry width="50" height="50" relative="1" as="geometry">
            <mxPoint x="430" y="740" as="sourcePoint" />
            <mxPoint x="350" y="680" as="targetPoint" />
          </mxGeometry>
        </mxCell>
        <mxCell id="jPDuKESHbQuXLP3hNdnU-29" value="InfoForm" style="ellipse;whiteSpace=wrap;html=1;" vertex="1" parent="1">
          <mxGeometry x="1160" y="320" width="120" height="80" as="geometry" />
        </mxCell>
        <mxCell id="jPDuKESHbQuXLP3hNdnU-30" value="" style="endArrow=ERone;html=1;rounded=0;startArrow=ERmany;startFill=0;endFill=0;" edge="1" parent="1" source="jPDuKESHbQuXLP3hNdnU-19" target="jPDuKESHbQuXLP3hNdnU-29">
          <mxGeometry width="50" height="50" relative="1" as="geometry">
            <mxPoint x="630" y="520" as="sourcePoint" />
            <mxPoint x="590" y="410" as="targetPoint" />
          </mxGeometry>
        </mxCell>
        <mxCell id="jPDuKESHbQuXLP3hNdnU-31" value="" style="endArrow=ERone;html=1;rounded=0;startArrow=ERmany;startFill=0;endFill=0;" edge="1" parent="1" source="jPDuKESHbQuXLP3hNdnU-36" target="jPDuKESHbQuXLP3hNdnU-1">
          <mxGeometry width="50" height="50" relative="1" as="geometry">
            <mxPoint x="520" y="530" as="sourcePoint" />
            <mxPoint x="726" y="407" as="targetPoint" />
          </mxGeometry>
        </mxCell>
        <mxCell id="jPDuKESHbQuXLP3hNdnU-32" value="Evidence Location" style="ellipse;whiteSpace=wrap;html=1;" vertex="1" parent="1">
          <mxGeometry x="840" y="320" width="120" height="80" as="geometry" />
        </mxCell>
        <mxCell id="jPDuKESHbQuXLP3hNdnU-33" value="" style="endArrow=ERone;html=1;rounded=0;startArrow=ERmany;startFill=0;endFill=0;" edge="1" parent="1" source="jPDuKESHbQuXLP3hNdnU-19" target="jPDuKESHbQuXLP3hNdnU-32">
          <mxGeometry width="50" height="50" relative="1" as="geometry">
            <mxPoint x="520" y="740" as="sourcePoint" />
            <mxPoint x="454" y="407" as="targetPoint" />
          </mxGeometry>
        </mxCell>
        <mxCell id="jPDuKESHbQuXLP3hNdnU-34" value="Evidence Type" style="ellipse;whiteSpace=wrap;html=1;" vertex="1" parent="1">
          <mxGeometry x="1000" y="320" width="120" height="80" as="geometry" />
        </mxCell>
        <mxCell id="jPDuKESHbQuXLP3hNdnU-35" value="" style="endArrow=ERone;html=1;rounded=0;startArrow=ERmany;startFill=0;endFill=0;" edge="1" parent="1" source="jPDuKESHbQuXLP3hNdnU-19" target="jPDuKESHbQuXLP3hNdnU-34">
          <mxGeometry width="50" height="50" relative="1" as="geometry">
            <mxPoint x="670" y="590" as="sourcePoint" />
            <mxPoint x="910" y="410" as="targetPoint" />
          </mxGeometry>
        </mxCell>
        <mxCell id="jPDuKESHbQuXLP3hNdnU-37" value="" style="endArrow=ERone;html=1;rounded=0;startArrow=ERmany;startFill=0;endFill=0;" edge="1" parent="1" source="jPDuKESHbQuXLP3hNdnU-19" target="jPDuKESHbQuXLP3hNdnU-36">
          <mxGeometry width="50" height="50" relative="1" as="geometry">
            <mxPoint x="680" y="612" as="sourcePoint" />
            <mxPoint x="1064" y="420" as="targetPoint" />
          </mxGeometry>
        </mxCell>
        <mxCell id="jPDuKESHbQuXLP3hNdnU-38" value="ICMS Investigation" style="ellipse;whiteSpace=wrap;html=1;" vertex="1" parent="1">
          <mxGeometry x="1320" y="320" width="120" height="80" as="geometry" />
        </mxCell>
        <mxCell id="jPDuKESHbQuXLP3hNdnU-39" value="" style="endArrow=ERone;html=1;rounded=0;startArrow=ERmany;startFill=0;endFill=0;" edge="1" parent="1" source="jPDuKESHbQuXLP3hNdnU-19" target="jPDuKESHbQuXLP3hNdnU-38">
          <mxGeometry width="50" height="50" relative="1" as="geometry">
            <mxPoint x="770" y="620" as="sourcePoint" />
            <mxPoint x="1306" y="420" as="targetPoint" />
          </mxGeometry>
        </mxCell>
        <mxCell id="jPDuKESHbQuXLP3hNdnU-40" value="" style="endArrow=ERone;html=1;rounded=0;startArrow=ERmany;startFill=0;endFill=0;" edge="1" parent="1" source="jPDuKESHbQuXLP3hNdnU-19" target="jPDuKESHbQuXLP3hNdnU-4">
          <mxGeometry width="50" height="50" relative="1" as="geometry">
            <mxPoint x="620" y="500" as="sourcePoint" />
            <mxPoint x="620" y="340" as="targetPoint" />
          </mxGeometry>
        </mxCell>
        <mxCell id="jPDuKESHbQuXLP3hNdnU-41" value="Cartel Immunity" style="ellipse;whiteSpace=wrap;html=1;" vertex="1" parent="1">
          <mxGeometry x="1480" y="320" width="120" height="80" as="geometry" />
        </mxCell>
        <mxCell id="jPDuKESHbQuXLP3hNdnU-42" value="" style="endArrow=ERone;html=1;rounded=0;startArrow=ERmany;startFill=0;endFill=0;" edge="1" parent="1" source="jPDuKESHbQuXLP3hNdnU-19" target="jPDuKESHbQuXLP3hNdnU-41">
          <mxGeometry width="50" height="50" relative="1" as="geometry">
            <mxPoint x="645" y="594" as="sourcePoint" />
            <mxPoint x="1335" y="386" as="targetPoint" />
          </mxGeometry>
        </mxCell>
        <mxCell id="jPDuKESHbQuXLP3hNdnU-43" value="Evidence Action" style="ellipse;whiteSpace=wrap;html=1;" vertex="1" parent="1">
          <mxGeometry x="680" y="800" width="120" height="80" as="geometry" />
        </mxCell>
        <mxCell id="jPDuKESHbQuXLP3hNdnU-44" value="" style="endArrow=ERone;html=1;rounded=0;startArrow=ERmany;startFill=0;endFill=0;" edge="1" parent="1" source="jPDuKESHbQuXLP3hNdnU-43" target="jPDuKESHbQuXLP3hNdnU-19">
          <mxGeometry width="50" height="50" relative="1" as="geometry">
            <mxPoint x="566" y="573" as="sourcePoint" />
            <mxPoint x="454" y="407" as="targetPoint" />
          </mxGeometry>
        </mxCell>
        <mxCell id="jPDuKESHbQuXLP3hNdnU-45" value="Evidence Item" style="ellipse;whiteSpace=wrap;html=1;" vertex="1" parent="1">
          <mxGeometry x="680" y="680" width="120" height="80" as="geometry" />
        </mxCell>
        <mxCell id="jPDuKESHbQuXLP3hNdnU-46" value="" style="endArrow=ERone;html=1;rounded=0;startArrow=ERmany;startFill=0;endFill=0;" edge="1" parent="1" source="jPDuKESHbQuXLP3hNdnU-43" target="jPDuKESHbQuXLP3hNdnU-45">
          <mxGeometry width="50" height="50" relative="1" as="geometry">
            <mxPoint x="800" y="1004" as="sourcePoint" />
            <mxPoint x="910" y="900" as="targetPoint" />
          </mxGeometry>
        </mxCell>
        <mxCell id="jPDuKESHbQuXLP3hNdnU-47" value="Evidence Audit Log" style="ellipse;whiteSpace=wrap;html=1;" vertex="1" parent="1">
          <mxGeometry x="520" y="560" width="120" height="80" as="geometry" />
        </mxCell>
        <mxCell id="jPDuKESHbQuXLP3hNdnU-48" value="" style="endArrow=ERone;html=1;rounded=0;startArrow=ERmany;startFill=0;endFill=0;strokeColor=#FF0000;" edge="1" parent="1" source="jPDuKESHbQuXLP3hNdnU-47" target="jPDuKESHbQuXLP3hNdnU-1">
          <mxGeometry width="50" height="50" relative="1" as="geometry">
            <mxPoint x="470" y="700" as="sourcePoint" />
            <mxPoint x="550" y="640" as="targetPoint" />
          </mxGeometry>
        </mxCell>
        <mxCell id="jPDuKESHbQuXLP3hNdnU-49" value="" style="endArrow=ERone;html=1;rounded=0;startArrow=ERmany;startFill=0;endFill=0;strokeColor=#FF0000;" edge="1" parent="1" source="jPDuKESHbQuXLP3hNdnU-47" target="jPDuKESHbQuXLP3hNdnU-19">
          <mxGeometry width="50" height="50" relative="1" as="geometry">
            <mxPoint x="250" y="934" as="sourcePoint" />
            <mxPoint x="376" y="650" as="targetPoint" />
          </mxGeometry>
        </mxCell>
        <mxCell id="jPDuKESHbQuXLP3hNdnU-50" value="" style="endArrow=ERone;html=1;rounded=0;startArrow=ERmany;startFill=0;endFill=0;strokeColor=#FF3333;" edge="1" parent="1" source="jPDuKESHbQuXLP3hNdnU-47" target="jPDuKESHbQuXLP3hNdnU-45">
          <mxGeometry width="50" height="50" relative="1" as="geometry">
            <mxPoint x="650" y="1010" as="sourcePoint" />
            <mxPoint x="858" y="790" as="targetPoint" />
          </mxGeometry>
        </mxCell>
        <mxCell id="jPDuKESHbQuXLP3hNdnU-51" value="" style="endArrow=ERone;html=1;rounded=0;startArrow=ERmany;startFill=0;endFill=0;" edge="1" parent="1" source="jPDuKESHbQuXLP3hNdnU-45" target="jPDuKESHbQuXLP3hNdnU-19">
          <mxGeometry width="50" height="50" relative="1" as="geometry">
            <mxPoint x="470" y="700" as="sourcePoint" />
            <mxPoint x="550" y="640" as="targetPoint" />
          </mxGeometry>
        </mxCell>
        <mxCell id="jPDuKESHbQuXLP3hNdnU-52" value="" style="endArrow=ERone;html=1;rounded=0;startArrow=ERmany;startFill=0;endFill=0;" edge="1" parent="1" source="jPDuKESHbQuXLP3hNdnU-45" target="jPDuKESHbQuXLP3hNdnU-36">
          <mxGeometry width="50" height="50" relative="1" as="geometry">
            <mxPoint x="802" y="750" as="sourcePoint" />
            <mxPoint x="1018" y="670" as="targetPoint" />
          </mxGeometry>
        </mxCell>
        <mxCell id="jPDuKESHbQuXLP3hNdnU-53" value="Evidence Production document" style="ellipse;whiteSpace=wrap;html=1;" vertex="1" parent="1">
          <mxGeometry x="520" y="680" width="120" height="80" as="geometry" />
        </mxCell>
        <mxCell id="jPDuKESHbQuXLP3hNdnU-54" value="" style="endArrow=ERone;html=1;rounded=0;startArrow=ERmany;startFill=0;endFill=0;" edge="1" parent="1" source="jPDuKESHbQuXLP3hNdnU-45" target="jPDuKESHbQuXLP3hNdnU-53">
          <mxGeometry width="50" height="50" relative="1" as="geometry">
            <mxPoint x="630" y="680" as="sourcePoint" />
            <mxPoint x="710" y="740" as="targetPoint" />
          </mxGeometry>
        </mxCell>
        <mxCell id="jPDuKESHbQuXLP3hNdnU-55" value="" style="endArrow=ERone;html=1;rounded=0;startArrow=ERmany;startFill=0;endFill=0;" edge="1" parent="1" source="jPDuKESHbQuXLP3hNdnU-19" target="jPDuKESHbQuXLP3hNdnU-36">
          <mxGeometry width="50" height="50" relative="1" as="geometry">
            <mxPoint x="1008" y="580" as="sourcePoint" />
            <mxPoint x="472" y="380" as="targetPoint" />
          </mxGeometry>
        </mxCell>
        <mxCell id="jPDuKESHbQuXLP3hNdnU-36" value="Evidence Production" style="ellipse;whiteSpace=wrap;html=1;" vertex="1" parent="1">
          <mxGeometry x="680" y="440" width="120" height="80" as="geometry" />
        </mxCell>
      </root>
    </mxGraphModel>
  </diagram>
</mxfile>
